<?xml version="1.0" encoding="UTF-8" standalone="no"?>
<svg 
  width="64" 
  height="64" 
  viewBox="0 0 64 64" 
  fill="none" 
  xmlns="http://www.w3.org/2000/svg"
>
  <!-- Fox Illustration -->
  <g transform="translate(32, 32)">
    <!-- Fox head outline -->
    <path d="M0,-25 C15,-30 30,-20 35,-5 C40,10 35,25 25,35 C15,45 0,45 -15,35 C-25,25 -30,10 -25,-5 C-20,-20 -10,-30 0,-25 Z" 
          fill="white" stroke="black" stroke-width="1.5" />
    
    <!-- Fox ears -->
    <path d="M-15,-25 L-20,-40 L-5,-30 Z" fill="white" stroke="black" stroke-width="1.5" />
    <path d="M15,-25 L20,-40 L5,-30 Z" fill="white" stroke="black" stroke-width="1.5" />
    
    <!-- Fox face markings -->
    <path d="M0,-15 C5,-18 10,-15 12,-10 C15,-5 15,0 12,5 C10,10 5,12 0,10 L0,-15 Z" fill="black" />
    <path d="M0,-15 C-5,-18 -10,-15 -12,-10 C-15,-5 -15,0 -12,5 C-10,10 -5,12 0,10 L0,-15 Z" fill="white" />
    
    <!-- Fox eyes -->
    <ellipse cx="-8" cy="-5" rx="3" ry="4" fill="white" />
    <ellipse cx="8" cy="-5" rx="3" ry="4" fill="white" />
    <ellipse cx="-8" cy="-5" rx="1.5" ry="2" fill="black" />
    <ellipse cx="8" cy="-5" rx="1.5" ry="2" fill="black" />
    
    <!-- Fox nose -->
    <path d="M0,2 C2,2 3.5,3.5 3.5,5 C3.5,6.5 2,8 0,8 C-2,8 -3.5,6.5 -3.5,5 C-3.5,3.5 -2,2 0,2 Z" fill="black" />
    
    <!-- Fox neck/body -->
    <path d="M0,10 L0,30 C-10,30 -15,25 -15,15 L-15,5 C-15,0 -10,-2 0,0 Z" fill="white" stroke="black" stroke-width="1.5" />
    <path d="M0,10 L0,30 C10,30 15,25 15,15 L15,5 C15,0 10,-2 0,0 Z" fill="black" stroke="black" stroke-width="1.5" />
  </g>
</svg>
