<?xml version="1.0" standalone="no"?>
<!DOCTYPE svg PUBLIC "-//W3C//DTD SVG 20010904//EN"
 "http://www.w3.org/TR/2001/REC-SVG-20010904/DTD/svg10.dtd">
<svg version="1.0" xmlns="http://www.w3.org/2000/svg"
 width="1131.000000pt" height="1131.000000pt" viewBox="0 0 1131.000000 1131.000000"
 preserveAspectRatio="xMidYMid meet">

<g transform="translate(0.000000,1131.000000) scale(0.100000,-0.100000)"
fill="#000000" stroke="none">
<path d="M5083 9708 c-6 -24 -21 -88 -33 -143 -13 -55 -28 -120 -36 -145 -7
-25 -15 -61 -19 -80 -3 -19 -10 -46 -15 -60 -5 -14 -18 -59 -31 -100 -109
-372 -211 -575 -365 -726 -84 -83 -202 -146 -444 -239 -154 -60 -160 -62 -230
-93 -25 -11 -63 -28 -85 -37 -144 -62 -405 -198 -504 -262 -134 -88 -259 -208
-312 -298 -40 -70 -94 -192 -139 -320 -71 -198 -125 -276 -293 -422 -106 -92
-320 -254 -442 -334 -87 -57 -318 -191 -445 -256 l-95 -50 0 -74 c0 -58 5 -85
24 -122 112 -228 367 -431 666 -531 226 -76 404 -100 665 -92 102 3 237 12
300 21 323 42 377 42 535 5 176 -42 308 -166 291 -273 -12 -71 -81 -197 -208
-379 -225 -322 -285 -418 -366 -588 -145 -303 -196 -529 -197 -870 0 -265 19
-397 91 -625 95 -300 252 -552 491 -787 147 -145 202 -191 329 -278 160 -109
358 -205 539 -260 118 -36 127 -38 240 -62 101 -21 134 -23 415 -23 281 0 314
2 415 23 113 24 136 30 240 64 217 72 433 188 602 325 215 172 465 435 585
614 131 195 186 337 213 553 15 119 15 140 0 280 -9 83 -20 165 -25 181 -48
154 -66 201 -105 269 -24 43 -56 93 -70 112 -24 31 -31 34 -77 34 l-51 0 -199
-197 -198 -198 0 -66 c0 -39 7 -83 16 -105 24 -57 22 -157 -5 -223 -48 -118
-125 -210 -463 -552 -306 -310 -367 -350 -653 -434 -83 -25 -278 -25 -360 -1
-223 66 -344 136 -486 283 -84 86 -135 160 -185 268 -121 262 -93 526 85 802
135 208 269 360 751 848 412 417 444 451 532 565 86 113 118 162 161 245 96
190 132 315 148 516 18 228 -5 445 -64 605 -40 109 -121 252 -194 342 -19 23
-29 42 -21 42 20 0 256 -132 370 -207 147 -97 241 -168 393 -293 62 -51 288
-277 323 -322 35 -47 38 -48 89 -48 l53 0 -1 103 c0 56 -4 127 -9 157 -17 114
-39 228 -60 310 -12 47 -26 103 -32 125 -8 35 -26 88 -95 280 -53 148 -205
433 -334 626 -128 191 -342 438 -519 597 l-105 95 -6 146 c-10 245 -23 345
-75 571 -103 446 -376 883 -721 1154 -67 52 -76 56 -125 56 l-54 0 -11 -42z
m-910 -2587 c-4 -4 -35 -30 -68 -58 -170 -143 -356 -230 -529 -248 l-69 -8 72
104 c109 158 118 167 183 184 31 8 127 19 215 25 87 6 165 12 173 14 20 3 34
-4 23 -13z"/>
<path d="M3740 9648 c0 -35 7 -88 16 -118 26 -90 69 -305 84 -410 30 -230 43
-421 42 -647 l0 -243 50 0 c89 0 336 117 486 230 88 66 200 180 267 271 40 55
45 67 45 116 0 62 -11 87 -88 198 -117 168 -254 314 -407 436 -163 128 -360
229 -449 229 l-46 0 0 -62z"/>
<path d="M7985 5550 c-192 -36 -343 -103 -505 -226 -48 -36 -652 -635 -670
-664 -3 -6 -128 -133 -276 -283 -318 -322 -364 -371 -431 -457 -93 -121 -150
-234 -200 -395 -15 -51 -18 -96 -18 -295 0 -168 4 -248 13 -280 54 -177 91
-264 155 -360 41 -62 54 -70 108 -70 56 0 42 -12 253 211 l166 177 -1 68 c0
38 -6 102 -13 142 -16 91 -7 142 42 226 44 75 53 85 537 576 215 217 465 471
555 564 211 217 255 256 337 296 144 71 247 71 393 1 164 -79 291 -254 315
-434 12 -91 -28 -208 -108 -312 -29 -39 -200 -215 -723 -745 l-252 -255 -6
-125 c-3 -69 -14 -168 -25 -220 -20 -96 -70 -261 -90 -296 -34 -61 -71 -174
-71 -216 l0 -48 55 0 c122 0 352 103 516 231 68 53 1086 1080 1168 1177 100
120 180 258 220 382 53 162 56 185 56 415 0 225 -4 261 -48 410 -50 172 -154
342 -297 485 -177 176 -364 272 -625 320 -146 26 -387 26 -530 0z"/>
</g>
</svg>
